<?xml version="1.0" encoding="UTF-8"?>
<svg xmlns="http://www.w3.org/2000/svg"
  xmlns:xlink="http://www.w3.org/1999/xlink" width="0" height="0">
  <!-- Uploaded to: SVG Repo, www.svgrepo.com, Generator: SVG Repo Mixer Tools -->
  <symbol id="logo-vue" fill="#000000" width="800px" height="800px" viewBox="0 0 512 512">
    <title>ionicons-v5_logos</title>
    <polygon points="256 144.03 200.51 47.92 121.08 47.92 256 281.61 390.92 47.92 311.49 47.92 256 144.03"/>
    <polygon points="409.4 47.92 256 313.61 102.6 47.92 15.74 47.92 256 464.08 496.26 47.92 409.4 47.92"/>
  </symbol>

  <!-- Uploaded to: SVG Repo, www.svgrepo.com, Generator: SVG Repo Mixer Tools -->
  <symbol id="angular" width="800px" height="800px" viewBox="0 0 73 73">

    <title>frameworks-and-libraries/angular</title>
    <desc>Created with Sketch.</desc>
    <defs>

    </defs>
    <g stroke="none" stroke-width="1" fill="none" fill-rule="evenodd">
      <g id="container" transform="translate(2.000000, 2.000000)" fill="#FFFFFF" fill-rule="nonzero" stroke="#78011E" stroke-width="2">
        <rect id="mask" x="-1" y="-1" width="71" height="71" rx="14">

        </rect>
      </g>
      <g id="Angular_full_color_logo" transform="translate(13.000000, 11.000000)" fill-rule="nonzero">
        <polygon id="Shape" fill="#DD0031" points="23.81 0 23.81 0 23.81 0 0.227968085 8.40948936 3.82479787 39.5904574 23.81 50.6595745 23.81 50.6595745 23.81 50.6595745 43.7952021 39.5904574 47.3920319 8.40948936">

        </polygon>
        <polygon id="Shape" fill="#C3002F" points="23.81 0 23.81 5.62321277 23.81 5.59788298 23.81 31.2569574 23.81 31.2569574 23.81 50.6595745 23.81 50.6595745 43.7952021 39.5904574 47.3920319 8.40948936">

        </polygon>
        <path d="M23.81,5.59788298 L9.06806383,38.6532553 L14.5646277,38.6532553 L17.5282128,31.2569574 L30.0411277,31.2569574 L33.0047128,38.6532553 L38.5012766,38.6532553 L23.81,5.59788298 Z M28.1160638,26.6975957 L19.5039362,26.6975957 L23.81,16.3377128 L28.1160638,26.6975957 Z" id="Shape" fill="#FFFFFF">

        </path>
      </g>
    </g>
  </symbol>
  <!-- Uploaded to: SVG Repo, www.svgrepo.com, Generator: SVG Repo Mixer Tools -->
  <symbol id="react" fill="#000000" width="800px" height="800px" viewBox="0 0 24 24" data-name="Layer 1">
    <path d="M11.103,10.43793a1.78593,1.78593,0,1,0,2.43957.65362A1.786,1.786,0,0,0,11.103,10.43793Zm8.0047,1.93768q-.17587-.201-.37116-.40308.13641-.14337.264-.28649c1.60583-1.80427,2.28357-3.61371,1.65558-4.70154-.60217-1.043-2.39343-1.35382-4.63593-.91779q-.33132.06482-.659.14624-.06272-.21624-.13343-.43C14.467,3.49042,13.2381,1.99921,11.98206,2,10.77765,2.00055,9.61359,3.39709,8.871,5.5575q-.10959.31969-.20276.64471-.21908-.05375-.44-.0993c-2.366-.48578-4.27167-.16584-4.89844.9226-.601,1.04376.02753,2.74982,1.52851,4.47211q.22329.25562.45922.49976c-.18542.191-.361.38189-.52465.57171-1.4646,1.698-2.05719,3.37616-1.45716,4.41541.61969,1.07348,2.49854,1.42437,4.7854.97436q.278-.05511.55292-.124.10071.35156.22095.697c.73932,2.11706,1.89685,3.46863,3.097,3.4682,1.23944-.00073,2.48194-1.45288,3.23474-3.65875.05945-.17432.11573-.35535.16907-.54175q.35514.08835.71485.1568c2.20336.41687,3.95251.089,4.55145-.951C21.28058,15.93109,20.64288,14.12933,19.10767,12.37561ZM4.07019,7.45184c.38586-.67,1.94324-.93139,3.98608-.512q.19584.04027.39838.09a20.464,20.464,0,0,0-.42126,2.67767,20.88659,20.88659,0,0,0-2.10389,1.6936q-.21945-.22695-.42718-.4649l.00006.00006C4.21631,9.46057,3.708,8.08081,4.07019,7.45184Zm3.88666,5.72809c-.51056-.3866-.98505-.78265-1.41571-1.181.43036-.39587.90515-.79059,1.41467-1.17615q-.02746.58915-.02722,1.1792Q7.929,12.59117,7.95685,13.17993Zm-.00061,3.94061a7.23675,7.23675,0,0,1-2.63971.09314,1.766,1.766,0,0,1-1.241-.65631c-.36407-.63067.11176-1.978,1.36432-3.43023q.23621-.273.48791-.53174a20.49026,20.49026,0,0,0,2.10712,1.70007,20.80226,20.80226,0,0,0,.42621,2.712Q8.21011,17.07023,7.95624,17.12054Zm7.10113-8.03936q-.50309-.317-1.01861-.61365-.5073-.292-1.0268-.56207c.593-.24933,1.17591-.46228,1.73865-.63581A18.21775,18.21775,0,0,1,15.05737,9.08118ZM9.679,5.83521c.63623-1.85114,1.57763-2.98053,2.30352-2.98084.77308-.00037,1.77753,1.21826,2.43433,3.19763q.064.19355.121.38928a20.478,20.478,0,0,0-2.52716.9712,20.06145,20.06145,0,0,0-2.519-.98194Q9.578,6.13062,9.679,5.83521ZM9.27863,7.259a18.30717,18.30717,0,0,1,1.72967.642Q9.95746,8.4433,8.96094,9.0824C9.0412,8.4444,9.148,7.83313,9.27863,7.259ZM8.9624,14.91968q.49695.31813,1.00843.61273.52174.30039,1.05737.57556a18.19577,18.19577,0,0,1-1.74445.66492C9.15161,16.1908,9.04364,15.56879,8.9624,14.91968Zm5.45569,3.14551A7.23556,7.23556,0,0,1,13.18,20.39844l-.00006.00006a1.76585,1.76585,0,0,1-1.18841.747c-.72821.00042-1.65766-1.085-2.28992-2.89545q-.11169-.32108-.20551-.648a20.10863,20.10863,0,0,0,2.52918-1.0097,20.79976,20.79976,0,0,0,2.54736.97851Q14.50141,17.81983,14.41809,18.06519Zm.36224-1.32422c-.56921-.176-1.16058-.39252-1.76214-.64551q.50867-.2677,1.02472-.56543.52955-.30579,1.0321-.62689A18.1524,18.1524,0,0,1,14.78033,16.741Zm.44629-4.74268q.00111.91095-.05688,1.82044c-.49268.33343-1.01282.659-1.554.97143-.53894.31116-1.07293.59711-1.59674.8559q-.82682-.39624-1.62176-.854-.79047-.455-1.54468-.969-.06894-.90921-.06946-1.82172l.00012.00019q-.00063-.91187.06794-1.82184c.49255-.33637,1.00891-.66168,1.54278-.96991.53632-.30969,1.077-.59442,1.61469-.85248q.81664.39688,1.60382.85065.78992.454,1.549.95868.06519.91443.06524,1.83166Zm.95673-5.09283c1.92133-.37372,3.37-.12232,3.73291.50622.3866.66962-.16748,2.1485-1.55383,3.70636l-.00006.00006q-.1149.12891-.23841.25891A20.06118,20.06118,0,0,0,15.98,9.68915a20.04054,20.04054,0,0,0-.40546-2.64893Q15.88486,6.96387,16.18335,6.90546Zm-.12988,3.8847A18.16447,18.16447,0,0,1,17.51483,11.978a18.11912,18.11912,0,0,1-1.45672,1.20831q.02325-.59391.02288-1.18842Q16.08072,11.39389,16.05347,10.79016Zm3.8681,5.78876c-.36346.63116-1.76788.89435-3.65222.53784q-.32391-.06115-.66474-.14557a20.069,20.069,0,0,0,.38746-2.68176,19.93914,19.93914,0,0,0,2.13708-1.71588q.17643.18329.33563.36487v-.00007a7.23437,7.23437,0,0,1,1.40308,2.23792A1.76563,1.76563,0,0,1,19.92157,16.57892Z"/>
  </symbol>
  <!-- Uploaded to: SVG Repo, www.svgrepo.com, Generator: SVG Repo Mixer Tools -->
  <symbol id="typescript" width="800px" height="800px" viewBox="0 0 32 32">
    <title>file_type_typescript</title>
    <path d="M23.827,8.243A4.424,4.424,0,0,1,26.05,9.524a5.853,5.853,0,0,1,.852,1.143c.011.045-1.534,1.083-2.471,1.662-.034.023-.169-.124-.322-.35a2.014,2.014,0,0,0-1.67-1c-1.077-.074-1.771.49-1.766,1.433a1.3,1.3,0,0,0,.153.666c.237.49.677.784,2.059,1.383,2.544,1.095,3.636,1.817,4.31,2.843a5.158,5.158,0,0,1,.416,4.333,4.764,4.764,0,0,1-3.932,2.815,10.9,10.9,0,0,1-2.708-.028,6.531,6.531,0,0,1-3.616-1.884,6.278,6.278,0,0,1-.926-1.371,2.655,2.655,0,0,1,.327-.208c.158-.09.756-.434,1.32-.761L19.1,19.6l.214.312a4.771,4.771,0,0,0,1.35,1.292,3.3,3.3,0,0,0,3.458-.175,1.545,1.545,0,0,0,.2-1.974c-.276-.395-.84-.727-2.443-1.422a8.8,8.8,0,0,1-3.349-2.055,4.687,4.687,0,0,1-.976-1.777,7.116,7.116,0,0,1-.062-2.268,4.332,4.332,0,0,1,3.644-3.374A9,9,0,0,1,23.827,8.243ZM15.484,9.726l.011,1.454h-4.63V24.328H7.6V11.183H2.97V9.755A13.986,13.986,0,0,1,3.01,8.289c.017-.023,2.832-.034,6.245-.028l6.211.017Z" style="fill:#007acc"/>
  </symbol>
  <!-- Uploaded to: SVG Repo, www.svgrepo.com, Generator: SVG Repo Mixer Tools -->
  <symbol id="ruby" width="800px" height="800px" viewBox="0 0 64 64" fill="none">
    <path fill-rule="evenodd" clip-rule="evenodd" d="M38.594 35.797 24.89 43.933l17.742-1.204L44 24.84l-5.406 10.958z" fill="url(#a)"/>
    <path fill-rule="evenodd" clip-rule="evenodd" d="m42.663 42.717-1.525-10.525-4.154 5.485 5.679 5.04z" fill="url(#b)"/>
    <path fill-rule="evenodd" clip-rule="evenodd" d="m42.683 42.717-11.172-.877-6.56 2.07 17.732-1.193z" fill="url(#c)"/>
    <path fill-rule="evenodd" clip-rule="evenodd" d="m24.966 43.913 2.791-9.143-6.141 1.313 3.35 7.83z" fill="url(#d)"/>
    <path fill-rule="evenodd" clip-rule="evenodd" d="m36.983 37.707-2.568-10.059-7.35 6.89 9.918 3.17z" fill="url(#e)"/>
    <path fill-rule="evenodd" clip-rule="evenodd" d="m43.417 27.79-6.947-5.674-1.934 6.254 8.881-.58z" fill="url(#f)"/>
    <path fill-rule="evenodd" clip-rule="evenodd" d="m40.169 20.093-4.086 2.258-2.578-2.288 6.664.03z" fill="url(#g)"/>
    <path fill-rule="evenodd" clip-rule="evenodd" d="m20 39.15 1.712-3.122-1.385-3.719L20 39.15z" fill="url(#h)"/>
    <path fill-rule="evenodd" clip-rule="evenodd" d="m20.235 32.192 1.393 3.951 6.053-1.358 6.91-6.422 1.95-6.195L33.472 20l-5.22 1.954c-1.646 1.53-4.838 4.557-4.953 4.614-.113.058-2.107 3.826-3.063 5.624z" fill="#ffffff"/>
    <path fill-rule="evenodd" clip-rule="evenodd" d="M25.126 25.093c3.565-3.534 8.161-5.622 9.925-3.843 1.762 1.78-.107 6.104-3.672 9.637-3.565 3.534-8.104 5.737-9.866 3.958-1.764-1.779.048-6.218 3.613-9.752z" fill="url(#i)"/>
    <path fill-rule="evenodd" clip-rule="evenodd" d="m24.966 43.91 2.77-9.173 9.196 2.954c-3.325 3.118-7.023 5.754-11.966 6.218z" fill="url(#j)"/>
    <path fill-rule="evenodd" clip-rule="evenodd" d="m34.604 28.345 2.36 9.351c2.778-2.92 5.271-6.06 6.492-9.944l-8.852.593z" fill="url(#k)"/>
    <path fill-rule="evenodd" clip-rule="evenodd" d="M43.432 27.8c.945-2.852 1.163-6.942-3.293-7.702l-3.655 2.02 6.948 5.682z" fill="url(#l)"/>
    <path fill-rule="evenodd" clip-rule="evenodd" d="M20 39.109c.13 4.706 3.526 4.776 4.973 4.817l-3.341-7.802L20 39.109z" fill="#9E1209"/>
    <path fill-rule="evenodd" clip-rule="evenodd" d="M34.617 28.36c2.134 1.311 6.436 3.946 6.523 3.994.136.077 1.855-2.898 2.245-4.58l-8.768.585z" fill="url(#m)"/>
    <path fill-rule="evenodd" clip-rule="evenodd" d="m27.732 34.737 3.702 7.142c2.189-1.187 3.903-2.633 5.473-4.183l-9.175-2.959z" fill="url(#n)"/>
    <path fill-rule="evenodd" clip-rule="evenodd" d="m21.617 36.134-.524 6.245c.99 1.352 2.35 1.47 3.779 1.364-1.033-2.572-3.097-7.714-3.255-7.61z" fill="url(#o)"/>
    <path fill-rule="evenodd" clip-rule="evenodd" d="m36.462 22.133 7.354 1.032c-.393-1.663-1.598-2.736-3.652-3.072l-3.702 2.04z" fill="url(#p)"/>
    <defs>
      <linearGradient x1="41.086" y1="46.11" x2="36.023" y2="37.171" gradientUnits="userSpaceOnUse">
        <stop stop-color="#FB7655"/>
        <stop offset=".41" stop-color="#E42B1E"/>
        <stop offset=".99" stop-color="#900"/>
        <stop offset="1" stop-color="#900"/>
      </linearGradient>
      <linearGradient id="b" x1="43.608" y1="38.601" x2="37.083" y2="34.222" gradientUnits="userSpaceOnUse">
        <stop stop-color="#871101"/>
        <stop offset=".99" stop-color="#911209"/>
        <stop offset="1" stop-color="#911209"/>
      </linearGradient>
      <linearGradient id="c" x1="38.387" y1="46.381" x2="31.863" y2="42.002" gradientUnits="userSpaceOnUse">
        <stop stop-color="#871101"/>
        <stop offset=".99" stop-color="#911209"/>
        <stop offset="1" stop-color="#911209"/>
      </linearGradient>
      <linearGradient id="d" x1="24.687" y1="35.431" x2="25.699" y2="42.005" gradientUnits="userSpaceOnUse">
        <stop stop-color="#ffffff"/>
        <stop offset=".23" stop-color="#E57252"/>
        <stop offset=".46" stop-color="#DE3B20"/>
        <stop offset=".99" stop-color="#A60003"/>
        <stop offset="1" stop-color="#A60003"/>
      </linearGradient>
      <linearGradient id="e" x1="31.645" y1="29.293" x2="32.017" y2="36.002" gradientUnits="userSpaceOnUse">
        <stop stop-color="#ffffff"/>
        <stop offset=".23" stop-color="#E4714E"/>
        <stop offset=".56" stop-color="#BE1A0D"/>
        <stop offset=".99" stop-color="#A80D00"/>
        <stop offset="1" stop-color="#A80D00"/>
      </linearGradient>
      <linearGradient id="f" x1="37.819" y1="23.091" x2="38.935" y2="27.9" gradientUnits="userSpaceOnUse">
        <stop stop-color="#ffffff"/>
        <stop offset=".18" stop-color="#E46342"/>
        <stop offset=".4" stop-color="#C82410"/>
        <stop offset=".99" stop-color="#A80D00"/>
        <stop offset="1" stop-color="#A80D00"/>
      </linearGradient>
      <linearGradient id="g" x1="34.412" y1="21.398" x2="39.22" y2="18.994" gradientUnits="userSpaceOnUse">
        <stop stop-color="#ffffff"/>
        <stop offset=".54" stop-color="#C81F11"/>
        <stop offset=".99" stop-color="#BF0905"/>
        <stop offset="1" stop-color="#BF0905"/>
      </linearGradient>
      <linearGradient id="h" x1="20.473" y1="33.755" x2="20.869" y2="37.717" gradientUnits="userSpaceOnUse">
        <stop stop-color="#ffffff"/>
        <stop offset=".31" stop-color="#DE4024"/>
        <stop offset=".99" stop-color="#BF190B"/>
        <stop offset="1" stop-color="#BF190B"/>
      </linearGradient>
      <linearGradient id="i" x1="17.752" y1="38.788" x2="36.355" y2="19.66" gradientUnits="userSpaceOnUse">
        <stop stop-color="#BD0012"/>
        <stop offset=".07" stop-color="#ffffff"/>
        <stop offset=".17" stop-color="#ffffff"/>
        <stop offset=".27" stop-color="#C82F1C"/>
        <stop offset=".33" stop-color="#820C01"/>
        <stop offset=".46" stop-color="#A31601"/>
        <stop offset=".72" stop-color="#B31301"/>
        <stop offset=".99" stop-color="#E82609"/>
        <stop offset="1" stop-color="#E82609"/>
      </linearGradient>
      <linearGradient id="j" x1="32.001" y1="40.718" x2="26.398" y2="39.335" gradientUnits="userSpaceOnUse">
        <stop stop-color="#8C0C01"/>
        <stop offset=".54" stop-color="#990C00"/>
        <stop offset=".99" stop-color="#A80D0E"/>
        <stop offset="1" stop-color="#A80D0E"/>
      </linearGradient>
      <linearGradient id="k" x1="41.625" y1="33.992" x2="36.648" y2="29.531" gradientUnits="userSpaceOnUse">
        <stop stop-color="#7E110B"/>
        <stop offset=".99" stop-color="#9E0C00"/>
        <stop offset="1" stop-color="#9E0C00"/>
      </linearGradient>
      <linearGradient id="l" x1="43.454" y1="25.807" x2="40.975" y2="23.156" gradientUnits="userSpaceOnUse">
        <stop stop-color="#79130D"/>
        <stop offset=".99" stop-color="#9E120B"/>
        <stop offset="1" stop-color="#9E120B"/>
      </linearGradient>
      <linearGradient id="o" x1="23.231" y1="43.904" x2="21.21" y2="37.048" gradientUnits="userSpaceOnUse">
        <stop stop-color="#8B2114"/>
        <stop offset=".43" stop-color="#9E100A"/>
        <stop offset=".99" stop-color="#B3100C"/>
        <stop offset="1" stop-color="#B3100C"/>
      </linearGradient>
      <linearGradient id="p" x1="38.732" y1="21.187" x2="43.262" y2="23.187" gradientUnits="userSpaceOnUse">
        <stop stop-color="#B31000"/>
        <stop offset=".44" stop-color="#910F08"/>
        <stop offset=".99" stop-color="#791C12"/>
        <stop offset="1" stop-color="#791C12"/>
      </linearGradient>
      <radialGradient id="m" cx="0" cy="0" r="1" gradientUnits="userSpaceOnUse" gradientTransform="translate(37.423 29.616) scale(6.09995)">
        <stop stop-color="#A80D00"/>
        <stop offset=".99" stop-color="#7E0E08"/>
        <stop offset="1" stop-color="#7E0E08"/>
      </radialGradient>
      <radialGradient id="n" cx="0" cy="0" r="1" gradientUnits="userSpaceOnUse" gradientTransform="translate(28.975 37.655) scale(8.10906)">
        <stop stop-color="#A30C00"/>
        <stop offset=".99" stop-color="#800E08"/>
        <stop offset="1" stop-color="#800E08"/>
      </radialGradient>
    </defs>
  </symbol>
  <!-- Uploaded to: SVG Repo, www.svgrepo.com, Generator: SVG Repo Mixer Tools -->
  <symbol id="python" width="800px" height="800px" viewBox="0 0 64 64" fill="none">
    <path d="M31.885 16c-8.124 0-7.617 3.523-7.617 3.523l.01 3.65h7.752v1.095H21.197S16 23.678 16 31.876c0 8.196 4.537 7.906 4.537 7.906h2.708v-3.804s-.146-4.537 4.465-4.537h7.688s4.32.07 4.32-4.175v-7.019S40.374 16 31.885 16zm-4.275 2.454c.771 0 1.395.624 1.395 1.395s-.624 1.395-1.395 1.395a1.393 1.393 0 0 1-1.395-1.395c0-.771.624-1.395 1.395-1.395z" fill="url(#a)"/>
    <path d="M32.115 47.833c8.124 0 7.617-3.523 7.617-3.523l-.01-3.65H31.97v-1.095h10.832S48 40.155 48 31.958c0-8.197-4.537-7.906-4.537-7.906h-2.708v3.803s.146 4.537-4.465 4.537h-7.688s-4.32-.07-4.32 4.175v7.019s-.656 4.247 7.833 4.247zm4.275-2.454a1.393 1.393 0 0 1-1.395-1.395c0-.77.624-1.394 1.395-1.394s1.395.623 1.395 1.394c0 .772-.624 1.395-1.395 1.395z" fill="url(#b)"/>
    <defs>
      <linearGradient x1="19.075" y1="18.782" x2="34.898" y2="34.658" gradientUnits="userSpaceOnUse">
        <stop stop-color="#387EB8"/>
        <stop offset="1" stop-color="#366994"/>
      </linearGradient>
      <linearGradient id="b" x1="28.809" y1="28.882" x2="45.803" y2="45.163" gradientUnits="userSpaceOnUse">
        <stop stop-color="#FFE052"/>
        <stop offset="1" stop-color="#FFC331"/>
      </linearGradient>
    </defs>
  </symbol>
  <!-- Uploaded to: SVG Repo, www.svgrepo.com, Generator: SVG Repo Mixer Tools -->
  <symbol id="c-plus-plus" fill="#000000" width="800px" height="800px" viewBox="0 0 24 24">
    <path d="M6.078 12A5.928 5.928 0 0 1 12 6.078a5.946 5.946 0 0 1 5.129 2.959l-1.499.867 5.027-2.902a1.579 1.579 0 0 0-.543-.575l-7.345-4.24c-.424-.245-1.116-.245-1.539 0l-7.345 4.24c-.422.244-.768.844-.768 1.333v8.48c0 .245.086.517.226.758l3.529-2.038A5.883 5.883 0 0 1 6.078 12z"/>
    <path d="M14.564 10.519A2.971 2.971 0 0 0 12 9.039a2.964 2.964 0 0 0-2.564 4.441L12 12l2.564-1.481z"/>
    <path d="m20.657 7.002-5.046 2.913-1.046.605-.001-.001L12 12l-2.563 1.48A2.964 2.964 0 0 0 12 14.961a2.97 2.97 0 0 0 2.565-1.481l2.563 1.483a5.944 5.944 0 0 1-5.129 2.959 5.926 5.926 0 0 1-5.128-2.962l-3.529 2.038c.14.242.332.453.543.575l7.345 4.24c.423.245 1.115.245 1.539 0l7.345-4.24c.211-.122.403-.333.543-.575.14-.241.226-.513.226-.758V7.76c0-.245-.086-.517-.226-.758zm-2.735 5.327h-.658v.658h-.657v-.658h-.658v-.658h.658v-.658h.657v.658h.658v.658zm2.468 0h-.658v.658h-.658v-.658h-.657v-.658h.657v-.658h.658v.658h.658v.658z"/>
  </symbol>
  <!-- Uploaded to: SVG Repo, www.svgrepo.com, Generator: SVG Repo Mixer Tools -->
  <symbol id="csharp" width="800px" height="800px" viewBox="0 0 32 32" fill="none">
    <path d="M27.6947 22.9999C27.883 22.6617 28 22.2807 28 21.9385V10.0613C28 9.71913 27.8831 9.33818 27.6947 9L16 16L27.6947 22.9999Z" fill="#7F3A86"/>
    <path d="M17.0395 29.7433L26.9611 23.8047C27.2469 23.6336 27.5067 23.3382 27.695 23L16.0003 16L4.30566 23C4.49398 23.3382 4.75382 23.6337 5.03955 23.8047L14.9611 29.7433C15.5326 30.0855 16.468 30.0855 17.0395 29.7433Z" fill="#662579"/>
    <path d="M27.6947 8.99996C27.5064 8.6617 27.2465 8.36629 26.9608 8.19521L17.0392 2.25662C16.4677 1.91446 15.5323 1.91446 14.9608 2.25662L5.03922 8.19521C4.46761 8.53729 4 9.37709 4 10.0613V21.9386C4 22.2807 4.11694 22.6618 4.30533 23L16 16L27.6947 8.99996Z" fill="#9A5196"/>
    <path d="M16.0385 24C11.6061 24 8 20.4112 8 16C8 11.5888 11.6061 8 16.0385 8C18.8458 8 21.4674 9.47569 22.919 11.8618L19.4765 13.9265C18.7492 12.736 17.4399 12 16.0385 12C13.8222 12 12.0193 13.7944 12.0193 16C12.0193 18.2056 13.8222 20 16.0385 20C17.4362 20 18.7421 19.2681 19.4707 18.0832L22.9205 20.1359C21.4692 22.5234 18.8467 24 16.0385 24Z" fill="white"/>
    <path fill-rule="evenodd" clip-rule="evenodd" d="M25.0001 13V13.9974H22.9999V13H22.0001V13.9974H21V15H22.0001V16.9948H21V18H22.0001V19H22.9999L23 18H25.0001V19H25.9999V18H27V17H25.9999V15H27V13.9974H25.9999V13H25.0001ZM25.0001 17V15H22.9999V16.9948L25.0001 17Z" fill="white"/>
  </symbol>
  <!-- Uploaded to: SVG Repo, www.svgrepo.com, Generator: SVG Repo Mixer Tools -->
  <symbol id="js" width="800px" height="800px" viewBox="0 0 32 32">
    <title>file_type_js</title>
    <path d="M18.774,19.7a3.727,3.727,0,0,0,3.376,2.078c1.418,0,2.324-.709,2.324-1.688,0-1.173-.931-1.589-2.491-2.272l-.856-.367c-2.469-1.052-4.11-2.37-4.11-5.156,0-2.567,1.956-4.52,5.012-4.52A5.058,5.058,0,0,1,26.9,10.52l-2.665,1.711a2.327,2.327,0,0,0-2.2-1.467,1.489,1.489,0,0,0-1.638,1.467c0,1.027.636,1.442,2.1,2.078l.856.366c2.908,1.247,4.549,2.518,4.549,5.376,0,3.081-2.42,4.769-5.671,4.769a6.575,6.575,0,0,1-6.236-3.5ZM6.686,20c.538.954,1.027,1.76,2.2,1.76,1.124,0,1.834-.44,1.834-2.15V7.975h3.422V19.658c0,3.543-2.078,5.156-5.11,5.156A5.312,5.312,0,0,1,3.9,21.688Z" style="fill:#f5de19"/>
  </symbol>

  <!-- Uploaded to: SVG Repo, www.svgrepo.com, Generator: SVG Repo Mixer Tools -->
  <symbol id="java" height="800px" width="800px" viewBox="0 0 511.998 511.998" xml:space="preserve">
    <g>
      <path style="fill:#DB380E;" d="M253.464,94.869c-23.658,16.639-50.471,35.498-64.838,66.699
		c-24.954,54.435,51.062,113.812,54.311,116.313c0.755,0.581,1.659,0.871,2.56,0.871c0.957,0,1.915-0.327,2.693-0.979
		c1.509-1.262,1.937-3.406,1.031-5.152c-0.275-0.53-27.561-53.53-26.547-91.552c0.359-13.243,18.892-28.266,38.512-44.171
		c17.97-14.568,38.34-31.079,50.258-50.394c26.164-42.516-2.916-84.322-3.213-84.74c-1.155-1.622-3.287-2.209-5.11-1.41
		c-1.821,0.804-2.83,2.773-2.414,4.72c0.059,0.277,5.714,27.923-10.022,56.406C284.203,73.25,269.959,83.268,253.464,94.869z"/>
      <path style="fill:#DB380E;" d="M353.137,113.617c1.669-1.257,2.159-3.55,1.15-5.38c-1.011-1.83-3.211-2.637-5.165-1.895
		c-4.019,1.528-98.416,37.915-98.416,81.88c0,30.307,12.946,46.317,22.399,58.009c3.708,4.586,6.909,8.546,7.964,11.927
		c2.97,9.743-4.066,27.353-7.025,33.317c-0.853,1.714-0.435,3.792,1.016,5.044c0.784,0.677,1.763,1.021,2.743,1.021
		c0.834,0,1.672-0.248,2.396-0.752c1.623-1.128,39.667-28.026,32.844-60.433c-2.542-12.318-8.595-21.318-13.936-29.26
		c-8.274-12.305-14.25-21.193-5.184-37.609C304.545,150.338,352.65,113.981,353.137,113.617z"/>
    </g>
    <g>
      <path style="fill:#73A1FB;" d="M107.418,298.236c-1.618,4.845-0.854,9.651,2.207,13.903c10.233,14.207,46.48,22.029,102.068,22.029
		c0.003,0,0.005,0,0.007,0c7.532,0,15.484-0.148,23.629-0.44c88.875-3.181,121.839-30.869,123.199-32.046
		c1.482-1.283,1.878-3.419,0.957-5.147c-0.922-1.727-2.909-2.595-4.808-2.072c-31.301,8.546-89.748,11.58-130.288,11.58
		c-45.363,0-68.465-3.268-74.121-5.681c2.902-3.985,20.802-11.101,42.983-15.464c2.12-0.416,3.577-2.374,3.367-4.524
		s-2.016-3.79-4.177-3.79C179.439,276.584,114.234,277.628,107.418,298.236z"/>
      <path style="fill:#73A1FB;" d="M404.812,269.718c-18.331,0-35.714,9.188-36.446,9.577c-1.695,0.908-2.555,2.852-2.09,4.72
		c0.467,1.865,2.144,3.176,4.067,3.178c0.389,0,39.102,0.317,42.608,22.436c3.106,19.082-36.629,50-52.202,60.304
		c-1.682,1.113-2.335,3.263-1.554,5.123c0.665,1.583,2.206,2.573,3.868,2.573c0.29,0,0.584-0.03,0.876-0.092
		c3.696-0.791,90.406-19.899,81.238-70.384C439.584,276.213,420.138,269.718,404.812,269.718z"/>
      <path style="fill:#73A1FB;" d="M345.347,363.755c0.302-1.617-0.371-3.262-1.717-4.207l-20.791-14.563
		c-1.014-0.71-2.295-0.933-3.485-0.618c-0.217,0.055-21.959,5.771-53.525,9.276c-12.528,1.405-26.56,2.147-40.582,2.147
		c-31.558,0-52.192-3.708-55.197-6.428c-0.398-0.764-0.272-1.111-0.201-1.304c0.546-1.518,3.472-3.322,5.358-4.036
		c2.083-0.771,3.206-3.033,2.558-5.157c-0.646-2.127-2.837-3.378-4.999-2.859c-20.856,5.033-31.054,12.071-30.312,20.918
		c1.318,15.686,37.65,23.737,68.365,25.865c4.417,0.302,9.194,0.455,14.195,0.455c0.003,0,0.005,0,0.008,0
		c51.074,0,116.55-16.025,117.204-16.188C343.825,366.666,345.044,365.375,345.347,363.755z"/>
      <path style="fill:#73A1FB;" d="M188.602,397.419c1.575-1.024,2.273-2.971,1.714-4.764c-0.557-1.793-2.234-2.971-4.118-2.946
		c-2.795,0.074-27.349,1.182-29.068,16.815c-0.52,4.672,0.818,8.941,3.979,12.686c8.816,10.448,32.614,16.658,72.741,18.984
		c4.747,0.285,9.569,0.428,14.334,0.428c51.015,0,85.373-15.973,86.812-16.653c1.395-0.66,2.315-2.031,2.397-3.571
		s-0.687-3.001-2.003-3.806l-26.275-16.04c-0.912-0.556-2.003-0.74-3.043-0.527c-0.166,0.035-16.849,3.495-42.026,6.913
		c-4.764,0.648-10.73,0.977-17.73,0.977c-25.15,0-53.124-4.109-58.489-6.8C187.749,398.613,187.848,397.975,188.602,397.419z"/>
      <path style="fill:#73A1FB;" d="M224.408,486.85c116.854-0.099,179.571-20.88,191.653-33.957c4.277-4.626,4.739-9.006,4.376-11.867
		c-0.898-7.04-7.311-11.35-8.038-11.818c-1.754-1.128-4.108-0.833-5.476,0.745c-1.365,1.578-1.397,3.884-0.027,5.461
		c0.737,0.948,1.163,2.535-0.992,4.692c-4.83,4.511-53.545,18.204-134.656,22.318c-11.111,0.577-22.765,0.871-34.636,0.873
		c-72.623,0-125.772-9.948-132.749-15.744c2.689-3.864,21.489-10.037,41.482-13.529c2.253-0.393,3.775-2.516,3.426-4.776
		c-0.349-2.259-2.432-3.814-4.709-3.519c-0.564,0.077-2.478,0.191-4.694,0.327c-32.988,2.014-71.109,6.503-73.098,23.5
		c-0.604,5.179,0.935,9.881,4.576,13.973c8.909,10.01,34.516,23.319,153.558,23.319C224.406,486.85,224.406,486.85,224.408,486.85z" />
      <path style="fill:#73A1FB;" d="M439.013,456.578c-1.652-0.764-3.604-0.378-4.836,0.952c-0.171,0.185-17.74,18.556-70.564,29.344
		c-20.223,4.052-58.183,6.107-112.826,6.107c-54.745,0-106.838-2.154-107.357-2.176c-2.176-0.106-4.037,1.476-4.333,3.618
		c-0.297,2.14,1.083,4.158,3.184,4.658c0.542,0.128,55.135,12.918,129.779,12.918c35.801,0,70.639-2.907,103.548-8.645
		c61.361-10.757,65.657-41.183,65.81-42.473C441.632,459.078,440.662,457.342,439.013,456.578z"/>
    </g>
  </symbol>
  <!-- Uploaded to: SVG Repo, www.svgrepo.com, Generator: SVG Repo Mixer Tools -->
  <symbol id="php" width="800px" height="800px" viewBox="0 0 32 32" fill="none">
    <circle cx="16" cy="16" r="14" fill="#8892BF"/>
    <path d="M14.4392 10H16.1192L15.6444 12.5242H17.154C17.9819 12.5419 18.5986 12.7269 19.0045 13.0793C19.4184 13.4316 19.5402 14.1014 19.3698 15.0881L18.5541 19.4889H16.8497L17.6288 15.2863C17.7099 14.8457 17.6856 14.533 17.5558 14.348C17.426 14.163 17.146 14.0705 16.7158 14.0705L15.3644 14.0573L14.3661 19.4889H12.6861L14.4392 10Z" fill="white"/>
    <path fill-rule="evenodd" clip-rule="evenodd" d="M6.74092 12.5243H10.0036C10.9612 12.533 11.6552 12.8327 12.0854 13.4229C12.5156 14.0132 12.6576 14.8193 12.5115 15.8414C12.4548 16.3085 12.3289 16.7665 12.1341 17.2159C11.9474 17.6652 11.6878 18.0704 11.355 18.4317C10.9491 18.8898 10.5149 19.1805 10.0523 19.304C9.58969 19.4274 9.11076 19.489 8.61575 19.489H7.15484L6.69222 22H5L6.74092 12.5243ZM7.43485 17.9956L8.16287 14.0441H8.40879C8.49815 14.0441 8.5914 14.0396 8.6888 14.0309C9.33817 14.0221 9.87774 14.0882 10.308 14.2291C10.7462 14.37 10.8923 14.9031 10.7462 15.8282C10.5678 16.9296 10.2186 17.5727 9.69926 17.7577C9.1799 17.934 8.53053 18.0176 7.75138 18.0088H7.58094C7.53224 18.0088 7.48355 18.0043 7.43485 17.9956Z" fill="white"/>
    <path fill-rule="evenodd" clip-rule="evenodd" d="M24.4365 12.5243H21.1738L19.4329 22H21.1251L21.5878 19.489H23.0487C23.5437 19.489 24.0226 19.4274 24.4852 19.304C24.9479 19.1805 25.382 18.8898 25.7879 18.4317C26.1207 18.0704 26.3803 17.6652 26.567 17.2159C26.7618 16.7665 26.8877 16.3085 26.9444 15.8414C27.0905 14.8193 26.9486 14.0132 26.5183 13.4229C26.0881 12.8327 25.3942 12.533 24.4365 12.5243ZM22.5958 14.0441L21.8678 17.9956C21.9165 18.0043 21.9652 18.0088 22.0139 18.0088H22.1843C22.9635 18.0176 23.6128 17.934 24.1322 17.7577C24.6515 17.5727 25.0007 16.9296 25.1792 15.8282C25.3253 14.9031 25.1792 14.37 24.7409 14.2291C24.3107 14.0882 23.7711 14.0221 23.1217 14.0309C23.0243 14.0396 22.9311 14.0441 22.8417 14.0441H22.5958Z" fill="white"/>
  </symbol>
</svg>
